Coordinates
version=1
nRows=7
nColumns=33
inDegrees=yes

Units are S.I. units (second, meters, Newtons, ...)
Angles are in degrees.

endheader
time	ground_thorax_rot_x	ground_thorax_rot_y	ground_thorax_rot_z	ground_thorax_tx	ground_thorax_ty	ground_thorax_tz	clav_prot_r	clav_elev_r	scapula_abduction_r	scapula_elevation_r	scapula_upward_rot_r	scapula_winging_r	shoulder_elv_r	plane_of_elev_r	axial_rot_r	elbow_flexion_r	pro_sup_r	wrist_flex_r	wrist_dev_r	clav_prot_l	clav_elev_l	scapula_abduction_l	scapula_elevation_l	scapula_upward_rot_l	scapula_winging_l	shoulder_elv_l	plane_of_elev_l	axial_rot_l	elbow_flexion_l	pro_sup_l	wrist_flex_l	wrist_dev_l
      1.44000000	     -0.35144924	      5.85188800	     12.21978530	     -0.10822209	      1.02800757	      0.02311419	      4.89194693	      8.23152715	     23.91612532	      3.09035186	     27.46566745	    -12.41680173	     26.22888672	    -57.77931498	     53.61791395	     61.60902391	    -30.32208650	     31.05104690	    -24.99999983	     17.60098436	     -9.91734134	    -25.90607215	    -12.63290584	    -36.29462148	      5.01437689	     67.37155340	    -19.30972493	      4.14024959	     59.40539588	      4.91140413	     22.68302592	     -8.40209698
      1.45000000	     -0.41452169	      5.70632611	     12.23655168	     -0.10822953	      1.02754996	      0.02233573	      5.18955425	      8.01871253	     24.66602223	      2.85869271	     27.64385248	    -12.63391531	     26.10641160	    -56.20639662	     54.64290805	     59.63271329	    -32.46451601	     31.05327344	    -24.99999983	     17.79820347	    -10.11671740	    -26.10280821	    -12.09560149	    -35.54528229	      5.18349324	     67.12545628	    -18.30009246	      4.14966892	     57.59207226	      4.64302507	     23.42087629	     -7.57345240
      1.46000000	     -0.64990860	      5.55354766	     12.38657196	     -0.10834364	      1.02761076	      0.02155852	      5.58143247	      7.38759939	     25.51951428	      2.33348205	     27.63953842	    -12.81309506	     25.90076202	    -54.91725595	     55.25165822	     57.38108779	    -33.27978019	     30.68503347	    -24.99999983	     18.03548070	    -10.51727769	    -26.38604051	    -11.47075947	    -34.99786785	      5.34382598	     67.16658238	    -17.62268618	      4.11182661	     55.81096306	      4.73585506	     23.58776113	     -7.15133601
      1.47000000	     -0.47213321	      5.42441682	     12.22150564	     -0.10819110	      1.02664258	      0.02094136	      5.76717788	      7.84871260	     26.14471439	      2.58595792	     28.09306654	    -13.10234565	     25.14358246	    -52.62706710	     57.31458115	     54.78991594	    -38.86785171	     32.37530820	    -24.99999983	     18.19318499	    -10.67779090	    -26.51391159	    -10.89170371	    -34.08613521	      5.48895352	     66.62080728	    -16.23174571	      4.32650271	     53.57891358	      4.61263261	     24.90185209	     -6.25652204
      1.48000000	     -0.77717491	      5.20035097	     12.31054426	     -0.10837629	      1.02655575	      0.01987772	      6.13796272	      7.74287194	     27.54101157	      2.26453690	     28.91667065	    -13.57120652	     22.86051758	    -50.45920698	     60.83120143	     49.82702837	    -47.16733843	     40.18691483	    -24.99999983	     18.41035376	    -11.02232214	    -26.78907671	    -10.34921821	    -33.60109233	      5.63165839	     66.69754534	    -15.47445102	      4.53408000	     51.73843433	      5.42776328	     25.51671889	     -6.10921293
      1.49000000	     -1.08856700	      4.90017118	     12.41811292	     -0.10864489	      1.02658593	      0.01885718	      6.65366658	      7.06198017	     28.82175557	      1.63313896	     29.17443026	    -13.89740614	     22.18553991	    -48.92936806	     63.03824187	     46.32671290	    -48.06006306	     39.50578065	    -24.99999983	     18.64710987	    -11.16672320	    -27.10299030	     -9.91183708	    -32.96438645	      5.83792812	     66.30852434	    -14.49343664	      5.05993522	     49.46890637	      5.64115637	     25.54276414	     -5.73875370
      1.50000000	     -2.73922929	      3.63815290	     11.84113141	     -0.10831371	      1.02482530	      0.00681343	     13.90243378	     -8.79106145	     32.89435715	     -7.64943408	     15.88895199	    -10.73517718	    -11.27975876	    -61.60489960	    122.07671264	    -62.86345853	   -153.21435978	      5.21631023	      6.43775997	     17.54972416	     -7.90292049	    -25.19012070	    -11.01830003	    -29.03033862	      5.68416162	     62.85588150	    -12.52522329	      5.51326390	     47.98592911	      8.39112580	     26.37433224	     -5.25752462
